<?xml version="1.0" encoding="utf-8"?>
<!-- Generator: Adobe Illustrator 29.8.4, SVG Export Plug-In . SVG Version: 9.03 Build 0)  -->
<svg version="1.0" id="Calque_1" xmlns="http://www.w3.org/2000/svg" xmlns:xlink="http://www.w3.org/1999/xlink" x="0px" y="0px"
	 viewBox="0 0 1920 1080" style="enable-background:new 0 0 1920 1080;" xml:space="preserve">
<style type="text/css">
	.st0{fill:#2E2E2F;}
	.st1{clip-path:url(#SVGID_00000021827395770070820670000014075969866207215752_);}
	.st2{fill:#812251;}
	.st3{clip-path:url(#SVGID_00000052094629514976368350000017364970681883629958_);}
	.st4{fill:#822352;}
</style>
<path class="st0" d="M434.9,414.3c0.9,1.1,1.7,2.3,2.3,3.6c0.7,1.3,1.2,2.7,1.6,4.1c0.4,1.5,0.7,3,0.9,4.6c0.2,1.6,0.2,3.3,0.2,5
	c-0.1,1.7-0.2,3.5-0.6,5.4c-0.3,1.9-0.7,3.8-1.3,5.7c-0.5,2-1.2,4-2,6c-0.8,2-1.7,4.1-2.7,6.2c-1,2.1-2.1,4.2-3.4,6.4
	c-1.2,2.1-2.6,4.3-4,6.5c-1.4,2.2-3,4.3-4.6,6.5c-1.6,2.2-3.3,4.3-5.2,6.5c-1.8,2.2-3.7,4.3-5.7,6.4c-2,2.1-4,4.2-6.1,6.2
	c-2.1,2-4.3,4-6.5,6c-2.2,2-4.5,3.9-6.8,5.7c-2.3,1.9-4.7,3.7-7.1,5.4c-2.4,1.7-4.8,3.4-7.3,5c-2.5,1.6-4.9,3.1-7.4,4.6
	c-2.5,1.5-5,2.8-7.5,4.1c-2.5,1.3-5,2.5-7.4,3.6c-2.5,1.1-4.9,2.1-7.3,3.1c-2.4,0.9-4.8,1.8-7.2,2.5c-2.4,0.7-4.7,1.4-7,1.9
	c-2.3,0.5-4.5,0.9-6.7,1.3c-2.2,0.3-4.3,0.5-6.3,0.6c-2,0.1-4,0.1-5.9,0c-1.9-0.1-3.7-0.3-5.4-0.6c-1.7-0.3-3.3-0.7-4.9-1.3
	s-3-1.2-4.3-1.9c-1.3-0.7-2.6-1.6-3.7-2.5c-1.1-0.9-2.1-2-3-3.1c-0.9-1.1-1.7-2.3-2.3-3.6c-0.7-1.3-1.2-2.7-1.6-4.1
	c-0.4-1.5-0.7-3-0.9-4.6c-0.2-1.6-0.2-3.3-0.2-5c0.1-1.7,0.2-3.5,0.6-5.4c0.3-1.9,0.7-3.8,1.3-5.7c0.6-2,1.2-4,2-6
	c0.8-2,1.7-4.1,2.7-6.2c1-2.1,2.1-4.2,3.4-6.4c1.2-2.1,2.6-4.3,4-6.5c1.4-2.2,3-4.3,4.6-6.5c1.6-2.2,3.3-4.3,5.2-6.5
	c1.8-2.2,3.7-4.3,5.7-6.4c2-2.1,4-4.2,6.1-6.2c2.1-2,4.3-4,6.5-6c2.2-2,4.5-3.9,6.8-5.7c2.3-1.9,4.7-3.7,7.1-5.4
	c2.4-1.7,4.8-3.4,7.3-5c2.5-1.6,4.9-3.1,7.4-4.6s5-2.8,7.5-4.1s5-2.5,7.4-3.6c2.5-1.1,4.9-2.1,7.3-3.1c2.4-0.9,4.8-1.8,7.2-2.5
	c2.4-0.7,4.7-1.4,7-1.9c2.3-0.5,4.5-0.9,6.7-1.3c2.2-0.3,4.3-0.5,6.3-0.6c2-0.1,4-0.1,5.9,0c1.9,0.1,3.7,0.3,5.4,0.6
	c1.7,0.3,3.3,0.7,4.9,1.3c1.5,0.5,3,1.2,4.3,1.9c1.3,0.7,2.6,1.6,3.7,2.5C433,412.2,434,413.2,434.9,414.3z"/>
<path class="st0" d="M251.2,437.1c2.3,1.9,4.6,3.8,6.8,5.7c2.2,2,4.4,4,6.5,6c2.1,2,4.1,4.1,6.1,6.2c2,2.1,3.9,4.2,5.7,6.4
	c1.8,2.1,3.5,4.3,5.2,6.5c1.6,2.2,3.2,4.3,4.6,6.5s2.8,4.3,4,6.5c1.2,2.1,2.3,4.3,3.4,6.4c1,2.1,1.9,4.2,2.7,6.2c0.8,2,1.4,4,2,6
	c0.5,2,1,3.9,1.3,5.7c0.3,1.9,0.5,3.7,0.6,5.4c0.1,1.7,0,3.4-0.2,5c-0.2,1.6-0.5,3.1-0.9,4.6s-1,2.8-1.6,4.1
	c-0.7,1.3-1.4,2.5-2.3,3.6c-0.9,1.1-1.9,2.1-3,3.1c-1.1,0.9-2.3,1.8-3.7,2.5c-1.3,0.7-2.8,1.4-4.3,1.9c-1.5,0.5-3.2,1-4.9,1.3
	c-1.7,0.3-3.5,0.5-5.4,0.6c-1.9,0.1-3.8,0.1-5.9,0c-2-0.1-4.1-0.3-6.3-0.6c-2.2-0.3-4.4-0.7-6.7-1.3c-2.3-0.5-4.6-1.2-7-1.9
	c-2.4-0.7-4.8-1.6-7.2-2.5c-2.4-0.9-4.9-1.9-7.4-3.1c-2.5-1.1-5-2.3-7.4-3.6c-2.5-1.3-5-2.7-7.5-4.1s-5-3-7.4-4.6
	c-2.5-1.6-4.9-3.3-7.3-5c-2.4-1.7-4.8-3.5-7.1-5.4c-2.3-1.9-4.6-3.8-6.8-5.7c-2.2-2-4.4-4-6.5-6c-2.1-2-4.1-4.1-6.1-6.2
	c-2-2.1-3.8-4.2-5.7-6.4c-1.8-2.1-3.5-4.3-5.2-6.5c-1.6-2.2-3.2-4.3-4.6-6.5c-1.4-2.2-2.8-4.3-4-6.5s-2.4-4.3-3.4-6.4
	c-1-2.1-1.9-4.2-2.7-6.2c-0.8-2-1.4-4-2-6c-0.6-2-1-3.9-1.3-5.7c-0.3-1.9-0.5-3.7-0.6-5.4c-0.1-1.7,0-3.4,0.2-5s0.5-3.1,0.9-4.6
	c0.4-1.5,1-2.8,1.6-4.1c0.7-1.3,1.4-2.5,2.3-3.6c0.9-1.1,1.9-2.1,3-3.1c1.1-0.9,2.3-1.8,3.7-2.5c1.3-0.7,2.8-1.4,4.3-1.9
	c1.5-0.5,3.2-0.9,4.9-1.3c1.7-0.3,3.5-0.5,5.4-0.6c1.9-0.1,3.8-0.1,5.9,0c2,0.1,4.1,0.3,6.3,0.6c2.2,0.3,4.4,0.7,6.7,1.3
	c2.3,0.5,4.6,1.2,7,1.9c2.4,0.7,4.8,1.6,7.2,2.5c2.4,0.9,4.9,1.9,7.4,3.1c2.5,1.1,4.9,2.3,7.4,3.6c2.5,1.3,5,2.7,7.5,4.1
	c2.5,1.5,5,3,7.4,4.6s4.9,3.3,7.3,5C246.5,433.4,248.9,435.2,251.2,437.1z"/>
<g>
	<defs>
		<rect id="SVGID_1_" x="86.8" y="529.3" width="414.5" height="110.7"/>
	</defs>
	<clipPath id="SVGID_00000162320344886978840250000002033467698602526888_">
		<use xlink:href="#SVGID_1_"  style="overflow:visible;"/>
	</clipPath>
	<g style="clip-path:url(#SVGID_00000162320344886978840250000002033467698602526888_);">
		<path class="st2" d="M86.8,529.7h414.4v110.1H86.8V529.7z"/>
	</g>
</g>
<path class="st2" d="M101.4,626.4h385.3v274.8H101.4V626.4z"/>
<path class="st0" d="M259.3,524.1h81.5v377.1h-81.5V524.1z"/>
<path class="st2" d="M963.2,572.9c-52.8-26.2-95.3-39.3-127.6-39.3c-32.3,0-59.1,9.2-80.9,27.5c-20.7,17.5-31,36.4-31,56.4
	c0,20.1,3.8,18,11.3,22.7c10.2,5.8,19.9,8.6,29.1,8.6s6.8-0.4,10.2-1.2c12.1-2.9,22.3-7.7,30.6-14.6c8.4-6.8,12.5-12.4,12.5-16.4
	c0-4.1,1.2-7.1,3.8-8.6c2.6-1.5,3.8-1,3.8,1.6c0,2.6-0.4,3.3-1.2,5.5c-5.5,18.6-18.3,31.3-38.4,38.1c-8.6,2.9-17.5,4.4-26.6,4.4
	c-9.2,0-18.2-2.8-27.1-8.3c-16.7-9.5-25.2-23.9-25.2-43.2c0-19.4,10.8-44.5,32.2-63.6c21.4-19.1,47.6-28.7,78.4-28.7
	s30.6,2.2,46,6.7c38.7,10.5,73.8,25.6,105.2,45.5c8.1-8.9,16.4-13.4,25.2-13.4s14.7,3.2,14.8,9.8c0.3,2.9-0.7,4.2-2.8,3.9
	c-1.3-0.3-2.8-1.3-4.4-3.2c-2-0.7-4.1-1.2-5.8-1.2c-5.8,0-11.6,2.9-17.6,8.6c19.3,9.6,42.2,17.9,68.2,24.7
	c10.2,2.3,18.3,3.5,24.3,3.5c6,0,10.6,0,13.7-0.4c11.5-1.3,18.9-5.7,22.4-12.9c1.9-3.9,3.5-6.4,4.9-7.3c1.5-0.9,2.3-0.4,2.6,1.3v3.2
	c0,10.8-5.5,18.9-16.4,24.3c-6.8,3.3-13.2,5.1-19.2,5.1c-6,0-12.5-0.6-19.6-1.7c-7-1.2-16.3-3.6-27.5-7.3
	c-11.2-3.6-20.4-7.1-27.5-10.2c-7.1-3.2-14-6.4-20.8-9.8l-10.9-5.5c-13.5,15.4-28.1,42-43.5,79.7c-4.9,12.5-7.9,19.8-8.6,21.5
	c15.1,2,29.1,3.2,42.1,3.2c13,0,23-0.1,30.4-0.6c7.4-0.4,11.4,0.4,11.6,2.6c0.3,5.8-19.2,8.6-58.5,8.6c-39.3,0-22.7-0.6-30.3-1.6
	c-16.3,44.5-32.4,77.4-48.7,98.9c-6.8,8.9-15.3,18.2-25.5,28.1c-10.2,9.7-21.1,17.8-32.6,23.7c-25.9,14.1-54.9,21.2-86.7,21.2
	c-31.9,0-58.9-7.1-81.2-21.2c-33.8-20.9-50.6-51.1-50.6-90.6s2.2-27.6,6.7-42.8c3.2-9.9,9-18.8,17.5-26.3c8.4-7.6,15.6-12.2,21.4-14
	c5.8-1.7,8.4-2,8-1c-0.4,1-4.9,4.5-13.5,10.6c-17,12.4-27.1,27.5-30.3,45.5c-1.3,6.5-2,14.1-2,22.7s2,18,5.8,28.2
	c10.8,27.8,33,48.2,66.6,61.2c16,6,33.2,9,51.4,9c18.2,0,36.5-3.6,54.6-10.9c18-7.3,34.8-18.3,50.2-33c30.1-28.5,55-65.5,74.5-110.7
	l-25.2-0.4c-30.6,0-50.8,7.1-60.4,21.2c-2.3,2.9-4.2,3.6-5.7,2.2s-1.6-3.3-0.6-5.7c5.8-12.5,13.8-21.5,24.3-27.1
	c10.5-5.5,20.8-8.3,31.1-8.3c10.3,0,24.3,1.2,41.8,3.5c8.2-19.9,18.3-40.6,30.8-62c12.4-21.4,21.1-35.1,26-40.7L963.2,572.9z"/>
<path class="st2" d="M1102.6,737.8c-8.6,16.6-13.8,29.1-15.6,37.2c-1.7,8.3-2.6,14.8-2.6,20.1c0,5.2,1.9,7.7,5.8,7.7
	c3.9,0,11.1-4.5,18.5-13.7c10.8-13.4,21.4-30.7,31.7-52.2c1-2.3,2.2-3.6,3.5-3.9c2-0.7,3.2,0,3.2,2.3s-0.4,2.9-1.2,4.7
	c-24,48.7-44.4,73-60.8,73c-16.4,0-13.7-3.6-18.5-10.9c-2.3-3.9-3.5-9.2-3.5-15.7s1.3-14.5,3.9-24c-21,33.8-39,50.6-54.1,50.6
	c-15.1,0-8-1.3-11.3-3.9c-7.9-5.5-11.8-14.8-11.8-28.2c0-25.6,11.1-51.7,33.3-78.1c12.5-14.7,27.9-24.2,46.3-28.7
	c4.9-1.3,9.8-2,14.1-2c12.1,0,22.3,4.2,30.6,12.5c2.6,2.9,3.3,5.7,2.3,8.3c-1,2.6-3.2,3.6-6.7,3.2c-2.9-9.5-9.2-14.1-18.9-14.1
	s-25.2,8.9-41.6,26.6c-9.5,10.5-18.2,22.7-26.3,37c-10.2,17-15.3,30.6-15.3,40.7c0,10.2,3.2,15.3,9.8,15.3c15.7,0,36.2-24,61.6-72.2
	c4.9-9.6,9.2-16.3,12.5-19.8c3.3-3.5,7.7-5.2,13-5.2c5.2,0,3.8,0.4,8,1.2c4.4,0.7,7.6,0.9,9.6,0.4c-4.7,4.7-11.4,15.4-20.1,32
	L1102.6,737.8z"/>
<path class="st2" d="M1210.5,794.6c0,7.3,2.6,10.9,7.9,10.9c12.4,0,29.7-23,52.2-69.1c1.9-3.6,3.5-5.1,4.9-4.4
	c1.5,0.7,2.2,1.9,2.2,3.2c0,1.3-1.5,5.1-4.5,11.2c-3.1,6.1-6,12.1-9,17.6c-3.1,5.7-7.4,13.1-13.1,22.1
	c-12.1,18.3-24.9,27.5-38.4,27.5s-16-3.6-21.2-10.9c-2.3-3.3-3.5-8-3.5-14c0-6,1.3-12.9,3.9-21.4c2.6-8.4,9.8-22,21.5-40.7
	c2.9-4.7,4.4-8.4,4.4-11.2c0-2.8-2.2-4.1-6.7-4.1s-13,5.8-25.5,17.6c-18.9,17.3-37.1,43.2-55,77.7c-1.9,3.9-6.7,5.8-14.6,5.8
	c-7.1,0.6-11.5,1.3-13.4,2.3c49.8-103.3,85.7-175.5,108-216.2c4.9-9.2,9.3-15.6,13.1-19.2c3.8-3.6,8.3-5.5,13.5-5.5
	c5.2,0,4.1,0.3,8.3,1s7.3,0.9,9.5,0.6c-7.9,8.1-22,30.6-42.2,67.4c-20.2,36.8-39.7,74.1-58.2,112c12.4-15.4,23.3-27.5,33.2-36.1
	c9.9-8.6,21.8-16.7,35.9-24.6c14.1-7.7,24.4-11.6,31-11.6c6.6,0,3.1,0.3,4.4,0.7c-32.2,56.5-48.3,93.6-48.3,111L1210.5,794.6z"/>
<path class="st2" d="M1370.2,737.8c-8.6,16.6-13.8,29.1-15.6,37.2c-1.7,8.3-2.6,14.8-2.6,20.1c0,5.2,1.9,7.7,5.8,7.7
	c3.9,0,11.1-4.5,18.5-13.7c10.8-13.4,21.2-30.7,31.9-52.2c1-2.3,2.2-3.6,3.5-3.9c2-0.7,3.2,0,3.2,2.3s-0.4,2.9-1.2,4.7
	c-24.2,48.7-44.4,73-60.8,73s-13.7-3.6-18.5-10.9c-2.3-3.9-3.5-9.2-3.5-15.7s1.3-14.5,3.9-24c-21,33.8-39,50.6-54.1,50.6
	c-15.1,0-8-1.3-11.3-3.9c-7.9-5.5-11.8-14.8-11.8-28.2c0-25.6,11.1-51.7,33.3-78.1c12.5-14.7,27.9-24.2,46.3-28.7
	c4.9-1.3,9.8-2,14.1-2c12.1,0,22.3,4.2,30.6,12.5c2.6,2.9,3.3,5.7,2.3,8.3c-1,2.6-3.2,3.6-6.7,3.2c-2.9-9.5-9.2-14.1-18.9-14.1
	s-25.2,8.9-41.6,26.6c-9.5,10.5-18.2,22.7-26.3,37c-10.2,17-15.3,30.6-15.3,40.7c0,10.2,3.2,15.3,9.7,15.3c15.7,0,36.2-24,61.6-72.2
	c4.9-9.6,9.2-16.3,12.5-19.8c3.3-3.5,7.7-5.2,13-5.2c5.2,0,3.8,0.4,8,1.2c4.4,0.7,7.6,0.9,9.6,0.4c-4.7,4.7-11.3,15.4-20.1,32
	L1370.2,737.8z"/>
<path class="st2" d="M1593.9,683.6C1562,740.3,1546,777,1546,793.4c0,16.4,2.5,10.9,7.4,10.9s13.5-4.7,21.5-14.1
	c12.2-14.8,23-32.9,32.2-53.8c1.6-3.6,3.2-5.1,4.7-4.4s2.3,1.9,2.3,3.2c0,1.3-1.3,4.5-3.9,9.7c-2.6,5.2-4.7,9.5-6.3,12.5
	c-1.6,3.1-5.1,9.2-10.5,18c-5.4,8.9-9.9,15.4-13.7,19.6c-3.8,4.2-8.6,8.3-14.5,12.4c-5.8,4.1-12.5,6.1-20.1,6.1s-13.8-3.6-19.1-10.9
	c-2.3-3.3-3.5-8-3.5-14c0-6,1.3-12.9,3.9-21.4s9.8-22,21.5-40.7c2.9-4.7,4.4-8.4,4.4-11.2c0-2.8-2.2-4.1-6.4-4.1
	s-12.1,5.2-23.4,15.7c-11.2,10.5-23.1,24.6-35.5,42.3c-12.4,17.8-19.8,32-22.1,42.8c-4.5,0-7.7-1.9-9.8-5.5c-2-3.6-3.2-6.8-3.2-9.5
	c0-10.8,7.1-31.1,21.5-61.2c4.7-9.9,7.1-16.7,7.4-20.2c0.3-3.5-0.1-5.4-1.3-5.5c-1.2,0-2.8,0.3-4.9,1.3c-4.7,2.3-11.9,8.2-21.5,17.3
	c-18.3,16.7-36.4,42.2-54.1,76.5c-1.3,2.9-2.9,4.7-4.9,5.2c-2,0.6-5.8,1.2-11.6,1.3c-5.8,0.3-9.6,0.9-11.3,2
	c4.7-9.2,12.9-26.3,24.7-51.4c21.2-45,35.4-70.8,42.3-77.7c3.2-3.2,7.4-4.7,13-4.7s3.8,0.4,8,1.2c4.2,0.7,7.6,0.9,9.6,0.4
	c-9.7,5.2-25.5,29.8-47.4,73.8c12.2-15.1,21.1-25.2,26.5-29.8c5.4-4.7,9.3-8.3,11.9-10.6c2.6-2.3,4.7-4.2,6.1-5.5
	c1.5-1.3,3.5-3.2,6.3-5.7s4.8-4.4,6.3-5.5c1.5-1.2,3.5-2.8,6.1-4.9c2.6-2.2,4.7-3.5,6.1-4.1c1.5-0.7,3.3-1.8,6-3.3
	c2.5-1.6,4.4-2.3,5.5-2.3c1.2,0,2.8-0.3,4.9-1c2.2-0.7,3.5-0.4,4.4,0.6c5.2,2,7.9,5.4,7.9,9.8c0,4.4-4.5,14-13.4,30.3
	c-8.9,16.3-14.7,26.9-17.3,32.2c11.5-14.4,22.6-26.2,33-35.5c10.5-9.3,22.8-17.9,37.1-25.8c14.3-7.9,24.6-11.8,31.1-11.8
	s2.9,0.3,3.9,0.7L1593.9,683.6z"/>
<path class="st2" d="M1622.6,803.6c4.9,0,10.2-2.5,15.7-7.4c9.8-9.6,22-29.4,36.8-59.2c1.9-3.9,3.6-5.1,5.5-3.5
	c0.6,0.6,0.7,1.3,0.7,2.6c0,1.3-1,4.1-3.2,8.6c-2,4.5-3.9,8.7-5.7,12.4c-1.7,3.6-4.9,9.6-9.8,17.9c-4.8,8.3-9.2,14.5-13.1,19.1
	c-10.8,12.4-20.8,18.5-30.4,18.5c-9.6,0-16.4-2.9-20.7-8.6c-4.2-5.8-6.3-12.2-6.3-19.2s1.7-14.8,5.1-23.1l25.2-64
	c0.6-1.6,0.7-3.6,0.7-6.3s-1.6-6-4.7-10.2l21.5-0.4c6,0,9.6,1.2,10.6,3.3c1,2.2,0.3,5.7-2.3,10.3l-31.4,73.3
	c-4.5,9.6-6.7,17.9-6.7,24.7c0,6.8,4.1,11.3,12.2,11.3L1622.6,803.6L1622.6,803.6z M1661.1,659.6c-3.6,3.2-7.7,4.7-12.2,4.7
	s-8-1.6-10.6-4.7c-2.6-3.2-3.6-7-3.2-11.3c0.7-4.4,3.1-8.3,6.7-11.3c3.6-3.1,7.7-4.7,12.2-4.7s8,1.6,10.8,4.7
	c2.8,3.1,3.8,7,2.9,11.3c-0.7,4.5-3.1,8.3-6.7,11.3H1661.1z"/>
<path class="st2" d="M1693.7,747.3c-2,6.1-3.9,12.1-5.2,17.6c-1.5,5.7-2.2,11.2-2.2,16.9c0,5.7,1.3,10.9,3.9,15.7s6.8,7.3,12.5,7.3
	c9.5,0,18.6-6.4,27.5-19.1c8.9-12.7,18.3-28.8,28.2-48.4c2-3.6,4.1-5.1,6-4.4c1.3,1,1.6,2.5,0.7,4.1c-0.7,1.7-2.5,5.4-4.9,10.9
	c-2.5,5.7-4.4,9.6-5.5,11.8c-1.2,2.2-3.2,6.1-6.3,11.8c-3.1,5.7-5.7,9.8-7.9,12.5c-2.2,2.8-5.2,6.3-9,10.6
	c-3.8,4.4-7.4,7.6-10.8,9.6c-9.2,5.8-17.8,8.6-25.9,8.6c-8.2,0-14.4-1.7-18.8-5.2c-4.5-3.5-7.1-7.3-8-11.3
	c-0.9-4.1-1.3-7.7-1.3-10.8c0-3.1,0-7.1,0.4-12.2c0.7-8.4,2.5-16.4,4.9-24.3c2.5-7.9,3.9-12.4,4.1-13.4c6-21.7,14.5-45.4,25.8-71
	c11.1-25.6,20.5-45,28.2-57.9c7.7-12.9,13.8-21.8,18.2-26.5c8.9-9.5,17.6-14.1,26.3-14.1c8.7,0,10,4.4,12.2,12.9
	c0.3,1.6,0.4,3.5,0.4,5.8c0,8.9-3.2,20.2-9.5,33.8c-22.6,50-49.3,89.2-80.5,117.7c-0.3,1-1.5,4.7-3.5,10.8L1693.7,747.3z
	 M1740,672.5c13.1-20.7,22.7-38.3,28.8-52.8c6.1-14.5,9.2-24.4,9.2-29.7c0-5.2-0.9-7.9-2.8-7.9c-2.6,0-7.6,5.1-14.8,15.4
	c-7.3,10.3-17.2,28.9-29.7,55.7c-12.4,26.8-22.6,50.3-30.4,70.4c13.4-13.7,26.5-30.7,39.6-51.4L1740,672.5z"/>
<g>
	<defs>
		<rect id="SVGID_00000143589975995215648540000011853302425140758416_" x="1742.7" y="632" width="90.2" height="181.3"/>
	</defs>
	<clipPath id="SVGID_00000093139333536653675560000004695059495642058399_">
		<use xlink:href="#SVGID_00000143589975995215648540000011853302425140758416_"  style="overflow:visible;"/>
	</clipPath>
	<g style="clip-path:url(#SVGID_00000093139333536653675560000004695059495642058399_);">
		<path class="st2" d="M1774,803.6c4.9,0,10.2-2.5,15.7-7.4c9.7-9.6,22-29.4,36.8-59.2c1.9-3.9,3.6-5.1,5.5-3.5
			c0.6,0.6,0.7,1.3,0.7,2.6c0,1.3-1,4.1-3.2,8.6c-2,4.5-3.9,8.7-5.7,12.4c-1.7,3.6-4.9,9.6-9.8,17.9c-4.8,8.3-9.2,14.5-13.1,19.1
			c-10.8,12.4-20.8,18.5-30.4,18.5s-16.4-2.9-20.7-8.6c-4.2-5.8-6.3-12.2-6.3-19.2s1.7-14.8,5.1-23.1l25.2-64
			c0.6-1.6,0.7-3.6,0.7-6.3s-1.6-6-4.7-10.2l21.5-0.4c6,0,9.6,1.2,10.6,3.3c1,2.2,0.3,5.7-2.3,10.3l-31.4,73.3
			c-4.5,9.6-6.7,17.9-6.7,24.7c0,6.8,4.1,11.3,12.2,11.3V803.6z M1812.6,659.6c-3.6,3.2-7.7,4.7-12.2,4.7c-4.5,0-8-1.6-10.6-4.7
			c-2.6-3.2-3.6-7-3.2-11.3c0.7-4.4,3.1-8.3,6.7-11.3c3.6-3.1,7.7-4.7,12.2-4.7c4.5,0,8,1.6,10.8,4.7c2.8,3.1,3.8,7,2.9,11.3
			c-0.7,4.5-3.1,8.3-6.7,11.3H1812.6z"/>
	</g>
</g>
<g>
	<g transform="translate(524.62726, 189.779043)">
		<g>
			<path class="st4" d="M206,9.2l-8.8,1.1v48.4h11.6c6.1,0,10.5-0.3,13.3-0.9l3.5-11.9h3.8l-1.6,17.3h-51.5v-3.1l7.3-1.2V10.3
				l-7.3-1.1V6.1H206V9.2z"/>
		</g>
	</g>
</g>
<g>
	<g transform="translate(568.296227, 189.779043)">
		<g>
			<path class="st4" d="M207.8,34.6c0,9.1,1.2,15.5,3.7,19.4c2.5,3.9,6.4,5.8,11.8,5.8c5.4,0,9.3-1.9,11.8-5.8
				c2.5-3.9,3.7-10.4,3.7-19.4c0-9-1.2-15.4-3.7-19.2c-2.5-3.8-6.4-5.7-11.8-5.7c-5.4,0-9.3,1.9-11.8,5.7
				C209.1,19.2,207.8,25.6,207.8,34.6z M193.7,34.6c0-19.4,9.9-29.1,29.7-29.1c9.8,0,17.2,2.5,22.2,7.4c5,4.9,7.5,12.2,7.5,21.8
				c0,9.7-2.5,17-7.6,22c-5.1,5-12.4,7.5-22.1,7.5c-9.6,0-17-2.5-22.1-7.5C196.2,51.7,193.7,44.3,193.7,34.6z"/>
		</g>
	</g>
</g>
<g>
	<g transform="translate(619.222043, 189.779043)">
		<g>
			<path class="st4" d="M266.3,60.3c-3.5,1.2-7.6,2.1-12.3,2.8c-4.7,0.7-8.8,1-12.6,1c-6.2,0-11.7-1.1-16.3-3.4
				c-4.6-2.3-8.2-5.6-10.7-9.9c-2.5-4.3-3.8-9.5-3.8-15.4c0-9.6,2.7-17,8.2-22.1c5.5-5.2,13.3-7.8,23.4-7.8c2.5,0,4.7,0.1,6.8,0.3
				c2,0.2,3.9,0.5,5.7,0.8c1.8,0.3,5,1.2,9.7,2.5v13.1h-3.8l-1-7.4c-2.2-1.5-4.7-2.7-7.4-3.6c-2.7-0.8-5.5-1.3-8.3-1.3
				c-6.6,0-11.5,2.1-14.5,6.2c-3,4.1-4.5,10.5-4.5,19.1c0,8,1.6,14.1,4.8,18.3c3.2,4.1,7.8,6.2,13.9,6.2c3.3,0,6.4-0.5,9.4-1.5V41.7
				l-7.3-1.1v-3.2h26.3v3.2l-5.6,1.1V60.3z"/>
		</g>
	</g>
</g>
<g>
	<g transform="translate(670.147859, 189.779043)">
		<g>
			<path class="st4" d="M241.8,34.6c0,9.1,1.2,15.5,3.7,19.4c2.5,3.9,6.4,5.8,11.8,5.8c5.4,0,9.3-1.9,11.8-5.8
				c2.5-3.9,3.7-10.4,3.7-19.4c0-9-1.2-15.4-3.7-19.2c-2.5-3.8-6.4-5.7-11.8-5.7c-5.4,0-9.3,1.9-11.8,5.7
				C243,19.2,241.8,25.6,241.8,34.6z M227.7,34.6c0-19.4,9.9-29.1,29.7-29.1c9.8,0,17.2,2.5,22.2,7.4c5,4.9,7.5,12.2,7.5,21.8
				c0,9.7-2.5,17-7.6,22c-5.1,5-12.4,7.5-22.1,7.5c-9.6,0-17-2.5-22.1-7.5C230.2,51.7,227.7,44.3,227.7,34.6z"/>
		</g>
	</g>
</g>
<g>
	<g transform="translate(721.073674, 189.779043)">
		<g>
			<path class="st4" d="M253.6,63.3v-3.1l9.1-1.2V10.6h-2.2c-6.5,0-11.1,0.3-13.7,0.9l-1.1,10.6h-3.9v-16h55.6v16h-3.9l-1.2-10.6
				c-2.3-0.5-7-0.8-14-0.8h-2.1V59l9.1,1.2v3.1H253.6z"/>
		</g>
	</g>
</g>
<g>
	<g transform="translate(764.742641, 189.779043)">
		<g>
			<path class="st4" d="M293.7,40.8V59l9.1,1.2v3.1h-31.6v-3.1l9.1-1.2V41l-17.4-30.7l-6.4-1.1V6.1h29.4v3.1l-7.7,1.1l13.1,24
				l12.6-24l-7-1.1V6.1h19.4v3.1l-6.1,1.1L293.7,40.8z"/>
		</g>
	</g>
</g>
<g>
	<g transform="translate(801.14703, 189.779043)">
		<g>
			<path class="st4" d="M304.2,23c0-4.6-0.8-7.7-2.5-9.5c-1.7-1.8-4.7-2.7-8.9-2.7h-3.4v25.4h3.5c4,0,6.8-1,8.6-3
				C303.3,31.2,304.2,27.8,304.2,23z M289.3,40.8V59l9.5,1.2v3.1h-29.8v-3.1l6.8-1.2V10.3l-7.3-1.1V6.1h25.2
				c8.1,0,14.1,1.4,18.1,4.1c4,2.7,6,7,6,12.8c0,11.9-7,17.9-20.9,17.9H289.3z"/>
		</g>
	</g>
</g>
<g>
	<g transform="translate(842.787267, 189.779043)">
		<g>
			<path class="st4" d="M282.4,60.2l7.3-1.2V10.3l-7.3-1.1V6.1h48.7v14.5h-3.9l-1.4-9.3c-3.2-0.4-7.8-0.6-13.8-0.6h-8.9v21h15
				l1.3-6.3h3.8V43h-3.8l-1.3-6.5h-15v22H314c7.3,0,12.1-0.2,14.4-0.7l2.4-10.6h3.9l-0.8,15.9h-51.5V60.2z"/>
		</g>
	</g>
</g>
</svg>
